<?xml version="1.0" encoding="utf-8"?>
<!-- Generator: Adobe Illustrator 21.1.0, SVG Export Plug-In . SVG Version: 6.00 Build 0)  -->
<svg version="1.1" id="Layer_1" xmlns="http://www.w3.org/2000/svg" xmlns:xlink="http://www.w3.org/1999/xlink" x="0px" y="0px"
	 viewBox="0 0 139 140" style="enable-background:new 0 0 139 140;" xml:space="preserve">
<style type="text/css">
	.st0{clip-path:url(#SVGID_2_);fill:#6D625A;}
	.st1{clip-path:url(#SVGID_2_);fill:#DEB408;}
	.st2{clip-path:url(#SVGID_2_);}
	.st3{fill:#DEB408;}
</style>
<g>
	<defs>
		<rect id="SVGID_1_" x="20.6" y="11.9" width="101.9" height="116.2"/>
	</defs>
	<clipPath id="SVGID_2_">
		<use xlink:href="#SVGID_1_"  style="overflow:visible;"/>
	</clipPath>
	<path class="st0" d="M20.6,99.6c0.6,0,1.3,0,2,0s1.3,0.2,1.9,0.4c0.6,0.2,1.1,0.6,1.5,1.1c0.4,0.5,0.6,1.1,0.7,2
		c0,0.4,0,0.8-0.1,1.2c-0.1,0.3-0.3,0.6-0.5,0.9c-0.2,0.3-0.4,0.5-0.6,0.7c-0.2,0.2-0.4,0.3-0.6,0.4c0.8,0.4,1.5,0.9,1.9,1.6
		c0.4,0.7,0.6,1.6,0.6,2.5c0,0.7-0.2,1.3-0.5,1.8c-0.3,0.6-0.8,1-1.3,1.4c-0.6,0.4-1.3,0.7-2.1,0.9c-0.8,0.2-1.7,0.2-2.7,0.2V99.6z
		 M22.3,101.5C22.3,101.5,22.3,101.5,22.3,101.5C22.3,101.6,22.3,101.6,22.3,101.5C22.4,101.6,22.4,101.6,22.3,101.5
		C22.4,101.6,22.4,101.6,22.3,101.5v3.6c0.3,0,0.6-0.1,0.9-0.2c0.3-0.1,0.5-0.3,0.7-0.5c0.2-0.2,0.4-0.4,0.5-0.6
		c0.1-0.2,0.2-0.5,0.2-0.8c0-0.3,0-0.6-0.2-0.8c-0.1-0.2-0.3-0.4-0.5-0.5c-0.2-0.1-0.5-0.2-0.7-0.2
		C22.9,101.5,22.7,101.5,22.3,101.5 M25.1,110.3c0-0.4-0.1-0.7-0.1-1c-0.1-0.3-0.3-0.6-0.5-0.9c-0.2-0.2-0.5-0.4-0.9-0.6
		c-0.4-0.2-0.8-0.2-1.3-0.3v5c0.3,0,0.6,0,1-0.1c0.3-0.1,0.6-0.3,0.9-0.5c0.3-0.2,0.5-0.4,0.6-0.7C25,110.9,25.1,110.6,25.1,110.3"
		/>
	<path class="st0" d="M36.2,114.6h-1.9l-1-4.6h-2.7l-1,4.6h-1.9l3.4-15.1h1.9L36.2,114.6z M30.9,108.1h1.9l-0.9-4.3L30.9,108.1z"/>
	<polygon class="st0" points="39.5,103.4 39.5,114.6 37.7,114.6 37.7,99.5 39.7,99.5 44.7,110.2 44.7,99.5 46.6,99.5 46.6,114.6 
		44.7,114.6 	"/>
	<polygon class="st0" points="50,103.4 50,114.6 48.2,114.6 48.2,99.5 50.3,99.5 55.3,110.2 55.3,99.5 57.1,99.5 57.1,114.6 
		55.3,114.6 	"/>
	<path class="st0" d="M67,107.4c0,1-0.2,2-0.3,2.8c-0.2,0.9-0.5,1.6-0.8,2.3c-0.4,0.6-0.8,1.2-1.3,1.5c-0.5,0.4-1.2,0.5-1.9,0.5
		c-1.3,0-2.3-0.6-3-1.9c-0.7-1.2-1-3.1-1-5.5c0-0.9,0.1-1.8,0.3-2.7c0.2-0.9,0.4-1.7,0.8-2.5c0.3-0.7,0.8-1.3,1.3-1.8
		c0.6-0.5,1.2-0.7,2-0.8c0.6,0,1.1,0.1,1.5,0.4c0.4,0.3,0.8,0.6,1.1,1.1c0.3,0.4,0.5,1,0.7,1.5c0.2,0.6,0.3,1.2,0.4,1.7
		c0.1,0.6,0.2,1.2,0.2,1.7C67,106.5,67,107,67,107.4 M65,107.3c0-0.8,0-1.6-0.1-2.3c-0.1-0.7-0.2-1.3-0.4-1.8
		c-0.2-0.5-0.4-0.9-0.6-1.2c-0.2-0.3-0.5-0.4-0.8-0.4c-0.5,0-0.9,0.2-1.2,0.6c-0.3,0.4-0.6,0.9-0.7,1.5c-0.2,0.6-0.3,1.2-0.4,1.9
		c-0.1,0.7-0.1,1.2-0.1,1.8c0,1.7,0.1,2.9,0.5,3.9c0.4,0.9,0.9,1.4,1.5,1.4c0.3,0,0.7-0.1,0.9-0.4c0.3-0.2,0.5-0.6,0.7-1
		c0.2-0.5,0.3-1,0.4-1.7C64.9,108.9,65,108.2,65,107.3"/>
	<path class="st0" d="M74.8,101.9c-0.1-0.1-0.3-0.2-0.6-0.3c-0.2-0.1-0.4-0.1-0.6-0.1c-0.5,0.1-0.9,0.3-1.2,0.6
		c-0.4,0.3-0.7,0.8-0.9,1.3c-0.2,0.5-0.4,1.2-0.6,1.9c-0.1,0.7-0.2,1.5-0.2,2.4c0,0.6,0,1.1,0.1,1.7c0.1,0.6,0.3,1.1,0.5,1.6
		c0.2,0.5,0.5,0.8,0.8,1.2c0.3,0.3,0.6,0.5,1,0.5c0.2,0,0.5,0,0.7-0.1c0.3-0.1,0.5-0.2,0.8-0.4l0.9,1.7c-0.4,0.4-0.9,0.6-1.3,0.7
		c-0.4,0.1-0.8,0.2-1.2,0.2c-0.7,0-1.3-0.2-1.8-0.6c-0.5-0.4-1-0.9-1.3-1.6c-0.4-0.7-0.7-1.4-0.9-2.3c-0.2-0.8-0.3-1.7-0.3-2.6
		c0-1,0.1-2,0.3-3c0.2-1,0.5-1.8,1-2.6c0.4-0.8,1-1.4,1.6-1.8c0.6-0.5,1.4-0.7,2.3-0.7c0.3,0,0.6,0.1,0.9,0.1
		c0.3,0.1,0.6,0.2,0.9,0.3L74.8,101.9z"/>
	<polygon class="st0" points="79,108.1 79,114.6 77,114.6 77,99.5 79,99.5 79,104.4 82.3,99.5 84.7,99.5 80.1,106 84.8,114.6 
		82.5,114.6 	"/>
	<path class="st0" d="M86.5,99.6c0.6,0,1.3,0,2,0c0.7,0,1.3,0.2,1.9,0.4c0.6,0.2,1.1,0.6,1.5,1.1c0.4,0.5,0.6,1.1,0.7,2
		c0,0.4,0,0.8-0.1,1.2c-0.1,0.3-0.3,0.6-0.5,0.9c-0.2,0.3-0.4,0.5-0.6,0.7c-0.2,0.2-0.4,0.3-0.6,0.4c0.8,0.4,1.5,0.9,1.9,1.6
		c0.4,0.7,0.6,1.6,0.6,2.5c0,0.7-0.2,1.3-0.5,1.8c-0.3,0.6-0.8,1-1.3,1.4c-0.6,0.4-1.3,0.7-2.1,0.9c-0.8,0.2-1.7,0.2-2.7,0.2V99.6z
		 M88.3,101.5C88.3,101.5,88.3,101.5,88.3,101.5C88.3,101.6,88.3,101.6,88.3,101.5C88.3,101.6,88.4,101.6,88.3,101.5
		C88.4,101.6,88.4,101.6,88.3,101.5v3.6c0.3,0,0.6-0.1,0.9-0.2c0.3-0.1,0.5-0.3,0.7-0.5s0.4-0.4,0.5-0.6c0.1-0.2,0.2-0.5,0.2-0.8
		c0-0.3,0-0.6-0.2-0.8c-0.1-0.2-0.3-0.4-0.5-0.5c-0.2-0.1-0.5-0.2-0.7-0.2C88.9,101.5,88.6,101.5,88.3,101.5 M91.1,110.3
		c0-0.4,0-0.7-0.1-1c-0.1-0.3-0.3-0.6-0.5-0.9c-0.2-0.2-0.5-0.4-0.9-0.6c-0.4-0.2-0.8-0.2-1.3-0.3v5c0.3,0,0.6,0,1-0.1
		c0.3-0.1,0.6-0.3,0.9-0.5c0.3-0.2,0.5-0.4,0.6-0.7C91,110.9,91.1,110.6,91.1,110.3"/>
	<path class="st0" d="M98.3,112.7c0.3,0,0.6-0.1,0.9-0.4c0.2-0.3,0.4-0.6,0.5-1c0.1-0.4,0.2-0.9,0.3-1.4c0.1-0.5,0.1-1,0.1-1.4
		c0-1.4,0-2.8,0-4.3c0-1.5,0-3-0.1-4.6h1.9c0,0.8,0,1.6,0,2.4s0,1.6,0,2.4c0,0.8,0,1.5,0,2.3c0,0.7,0,1.4-0.1,2
		c0,0.7-0.1,1.4-0.2,2.1c-0.1,0.7-0.3,1.4-0.5,1.9c-0.3,0.6-0.6,1-1.1,1.4c-0.5,0.4-1.1,0.6-1.9,0.6c-0.7,0-1.3-0.2-1.8-0.5
		c-0.4-0.4-0.8-0.8-1-1.4c-0.2-0.6-0.4-1.2-0.5-1.9c-0.1-0.7-0.2-1.4-0.2-2.1c-0.1-1.4-0.1-2.8-0.1-4.4c0-1.6,0-3.2,0.1-4.9h1.9
		c0,1.5-0.1,3-0.1,4.5c0,1.5,0,3,0.1,4.6c0,0.4,0,0.9,0.1,1.4c0.1,0.5,0.2,0.9,0.3,1.3c0.1,0.4,0.3,0.7,0.5,1
		C97.7,112.5,97.9,112.7,98.3,112.7"/>
	<path class="st0" d="M103.4,114.6v-15c0.4,0,0.8,0,1.2,0c0.4,0,0.8,0,1.2,0c0.4,0,0.8,0.1,1.1,0.1c0.3,0.1,0.6,0.1,0.9,0.2
		c0.5,0.2,0.9,0.4,1.2,0.7c0.3,0.3,0.6,0.6,0.7,1c0.2,0.3,0.3,0.7,0.4,1.1c0.1,0.4,0.1,0.8,0.1,1.2c0,0.5,0,1-0.2,1.4
		c-0.1,0.5-0.3,0.9-0.6,1.4c-0.3,0.4-0.6,0.8-1,1.1c-0.4,0.3-0.9,0.5-1.5,0.7l3.2,6.2h-2.1l-2.9-5.8v5.8H103.4z M108.3,103.9
		c0-0.4-0.1-0.7-0.2-1c-0.1-0.3-0.3-0.6-0.5-0.8c-0.2-0.2-0.6-0.4-0.9-0.5c-0.4-0.1-0.8-0.1-1.4-0.1v5.2c0.5,0.1,1,0,1.4-0.1
		c0.4-0.1,0.7-0.3,1-0.6c0.3-0.3,0.4-0.6,0.5-0.9C108.3,104.7,108.3,104.3,108.3,103.9"/>
	<polygon class="st0" points="113.6,103.4 113.6,114.6 111.8,114.6 111.8,99.5 113.8,99.5 118.8,110.2 118.8,99.5 120.7,99.5 
		120.7,114.6 118.8,114.6 	"/>
	<path class="st1" d="M20.6,21.4c2.9-0.1,5.9-0.1,9.1,0.1c3.2,0.2,6.1,0.8,8.8,1.8c2.7,1,5,2.7,6.9,4.9c1.8,2.2,2.9,5.3,3,9.1
		c0.1,2-0.1,3.8-0.6,5.4c-0.6,1.6-1.3,3-2.2,4.2c-0.9,1.2-1.9,2.3-3,3.1c-1.1,0.8-2.1,1.5-3,1.9c3.9,1.7,6.7,4.2,8.6,7.5
		c1.9,3.3,2.8,7.2,2.8,11.7c0,3.1-0.7,6-2.2,8.6c-1.5,2.6-3.5,4.8-6.2,6.6c-2.7,1.8-5.9,3.1-9.6,4c-3.7,0.9-7.8,1.1-12.4,0.7V21.4z
		 M28.9,30.6c-0.2,0-0.3,0-0.2,0C28.7,30.6,28.8,30.7,28.9,30.6c0,0.1,0.1,0.1,0.2,0.1c0.1,0,0,0-0.2,0v16.6c1.5-0.1,2.9-0.4,4.2-1
		c1.3-0.6,2.4-1.3,3.3-2.2c0.9-0.9,1.7-1.9,2.2-3c0.6-1.1,0.9-2.3,0.9-3.5c0.1-1.4-0.2-2.6-0.8-3.6c-0.6-1-1.4-1.8-2.4-2.3
		c-1-0.6-2.2-1-3.5-1.2C31.7,30.4,30.3,30.4,28.9,30.6 M41.7,71.2c0-1.7-0.2-3.2-0.7-4.7c-0.5-1.5-1.2-2.8-2.2-4
		c-1-1.1-2.3-2.1-4-2.8c-1.6-0.7-3.6-1.1-5.9-1.2v23.2c1.5,0.1,3-0.1,4.5-0.6c1.5-0.5,2.9-1.3,4.1-2.2c1.2-1,2.2-2.1,3-3.4
		C41.4,74.2,41.7,72.7,41.7,71.2"/>
	<g id="XMLID_1_" class="st2">
		<g>
			<path class="st3" d="M122.4,23.1l-3.5,9c-0.7-0.6-1.5-1.1-2.6-1.3c-1.1-0.3-2-0.4-2.7-0.4c-2.2,0.3-4,1.2-5.7,2.7
				c-1.7,1.5-3.1,3.5-4.2,5.9c-1.1,2.5-2,5.4-2.7,8.7c-0.6,3.3-1,7-1.1,10.9c-0.1,2.6,0.2,5.3,0.7,8c0.5,2.7,1.2,5.1,2.2,7.2
				s2.2,3.9,3.6,5.3c1.4,1.4,3,2.2,4.7,2.4c1,0.1,2.1,0,3.4-0.5c1.3-0.5,2.5-1.1,3.7-2.1l4.2,7.9c-2,1.8-3.9,2.9-5.9,3.4
				c-2,0.5-3.9,0.7-5.7,0.7c-3.1,0-5.9-1-8.4-2.9c-2.5-1.9-4.5-4.4-6.3-7.5c-1.7-3.1-3-6.6-4-10.5c-0.9-3.9-1.4-7.9-1.5-11.9
				c-0.1-4.6,0.4-9.2,1.4-13.7c1-4.5,2.5-8.6,4.4-12.1c2-3.5,4.4-6.4,7.4-8.5c3-2.2,6.5-3.2,10.5-3c1.3,0.1,2.7,0.2,4,0.5
				C119.7,21.8,121.1,22.4,122.4,23.1z"/>
		</g>
		<g>
		</g>
	</g>
	<g id="XMLID_2_" class="st2">
		<g>
			<path class="st3" d="M88.5,41.3c0,2.2-0.4,4.5-1.1,7c-0.7,2.5-2,4.8-3.7,7c-1.7,2.2-4,4.1-6.8,5.8c-2.3,1.3-5.1,2.3-8.2,2.8V53.9
				c1.4-0.2,2.6-0.5,3.7-1c1.6-0.7,3-1.7,4-2.8c1-1.1,1.8-2.5,2.3-4c0.5-1.5,0.7-3.1,0.7-4.8c0-1.5-0.3-3-0.7-4.5
				c-0.5-1.4-1.3-2.7-2.3-3.8c-1-1.1-2.4-1.9-4-2.5c-1.6-0.6-3.6-0.8-6-0.6v0v23.8v37.4H58V29.9h-7.8v-8.7h8v-9.3h8v9.2
				c2.2,0.1,4.3,0.3,6.1,0.7c3.9,0.8,7,2.2,9.4,4c2.4,1.8,4.1,4.1,5.2,6.8C87.9,35.3,88.5,38.2,88.5,41.3z"/>
		</g>
		<g>
		</g>
	</g>
	<path class="st0" d="M20.6,128v-9.9c0.8-0.1,1.5-0.1,2,0.1c0.6,0.1,1,0.3,1.3,0.6c0.3,0.3,0.6,0.6,0.7,1c0.1,0.4,0.2,0.8,0.2,1.2
		c0,0.3-0.1,0.6-0.2,1c-0.1,0.3-0.3,0.7-0.5,1c-0.2,0.3-0.6,0.6-1,0.8c-0.4,0.2-0.9,0.4-1.5,0.5v3.8H20.6z M23.6,120.9
		c0-0.2,0-0.4-0.1-0.6c-0.1-0.2-0.2-0.4-0.3-0.5c-0.1-0.2-0.3-0.3-0.6-0.4c-0.2-0.1-0.5-0.1-0.8-0.1v3.4c0.3,0,0.6-0.1,0.8-0.2
		c0.2-0.1,0.4-0.2,0.6-0.4c0.1-0.2,0.3-0.3,0.3-0.6C23.6,121.4,23.6,121.2,23.6,120.9"/>
	<path class="st0" d="M25.8,128v-9.9c0.3,0,0.5,0,0.8,0s0.5,0,0.8,0c0.3,0,0.5,0,0.7,0.1s0.4,0.1,0.6,0.2c0.3,0.1,0.6,0.3,0.8,0.5
		c0.2,0.2,0.4,0.4,0.5,0.6c0.1,0.2,0.2,0.5,0.3,0.7c0,0.3,0.1,0.5,0.1,0.8c0,0.3,0,0.6-0.1,1c-0.1,0.3-0.2,0.6-0.4,0.9
		c-0.2,0.3-0.4,0.5-0.7,0.7c-0.3,0.2-0.6,0.4-1,0.5l2.1,4.1h-1.4l-1.9-3.8v3.8H25.8z M29,120.9c0-0.2-0.1-0.5-0.1-0.7
		c-0.1-0.2-0.2-0.4-0.4-0.5c-0.2-0.1-0.4-0.2-0.6-0.3c-0.3-0.1-0.6-0.1-0.9-0.1v3.4c0.4,0,0.7,0,0.9-0.1c0.3-0.1,0.5-0.2,0.6-0.4
		c0.2-0.2,0.3-0.4,0.4-0.6C29,121.5,29,121.2,29,120.9"/>
	<polygon class="st0" points="35,118.1 35,119.3 32.5,119.3 32.5,122.8 34.6,122.8 34.6,124.1 32.5,124.1 32.5,126.7 35,126.7 
		35,128 31.1,128 31.1,118.1 	"/>
	<path class="st0" d="M39.3,120.9c0-0.2,0-0.3-0.1-0.5c0-0.2-0.1-0.4-0.2-0.5c-0.1-0.2-0.2-0.3-0.4-0.4c-0.2-0.1-0.3-0.2-0.6-0.2
		c-0.2,0-0.3,0-0.4,0.1c-0.1,0.1-0.2,0.2-0.3,0.3c-0.1,0.1-0.1,0.3-0.2,0.4c0,0.1-0.1,0.3-0.1,0.4c0,0.3,0.1,0.6,0.3,0.9
		c0.2,0.3,0.5,0.5,0.9,0.7c0.5,0.3,0.9,0.5,1.2,0.8c0.3,0.3,0.6,0.6,0.7,0.9c0.2,0.3,0.3,0.6,0.4,0.9c0.1,0.3,0.1,0.7,0.1,1
		c0,0.7-0.3,1.3-0.7,1.7c-0.4,0.4-0.9,0.6-1.6,0.6c-0.4,0-0.8-0.1-1.1-0.2c-0.3-0.2-0.6-0.4-0.8-0.7c-0.2-0.3-0.4-0.6-0.5-1
		c-0.1-0.4-0.2-0.9-0.2-1.4h1.3c0,0.6,0,1.1,0.2,1.5c0.2,0.4,0.5,0.6,1,0.6c0.2,0,0.3,0,0.5-0.1c0.1-0.1,0.2-0.2,0.3-0.3
		c0.1-0.1,0.1-0.2,0.2-0.3c0-0.1,0.1-0.2,0.1-0.4c0-0.5-0.1-0.9-0.4-1.4c-0.3-0.4-0.7-0.8-1.3-1.1c-1.3-0.7-1.9-1.7-1.9-2.8
		c0-0.4,0-0.7,0.2-1c0.1-0.3,0.3-0.6,0.4-0.8c0.2-0.2,0.4-0.4,0.7-0.5c0.3-0.1,0.6-0.2,1-0.2c0.3,0,0.7,0.1,1,0.2
		c0.3,0.1,0.5,0.3,0.8,0.6c0.2,0.2,0.4,0.6,0.5,0.9c0.1,0.4,0.2,0.8,0.2,1.2H39.3z"/>
	<path class="st0" d="M41.9,118.1c0.4,0,0.8,0,1.3,0c0.4,0,0.9,0.1,1.3,0.3c0.4,0.1,0.7,0.4,1,0.7c0.3,0.3,0.4,0.7,0.4,1.3
		c0,0.3,0,0.5-0.1,0.8c-0.1,0.2-0.2,0.4-0.3,0.6c-0.1,0.2-0.3,0.3-0.4,0.4c-0.2,0.1-0.3,0.2-0.4,0.3c0.6,0.2,1,0.6,1.2,1.1
		c0.3,0.5,0.4,1,0.4,1.7c0,0.4-0.1,0.9-0.3,1.2c-0.2,0.4-0.5,0.7-0.9,0.9c-0.4,0.3-0.8,0.4-1.4,0.6c-0.5,0.1-1.1,0.2-1.8,0.1V118.1z
		 M43,119.4C43,119.4,43,119.4,43,119.4C43,119.4,43,119.4,43,119.4C43,119.4,43,119.4,43,119.4C43.1,119.4,43.1,119.4,43,119.4v2.4
		c0.2,0,0.4-0.1,0.6-0.1c0.2-0.1,0.3-0.2,0.5-0.3c0.1-0.1,0.2-0.3,0.3-0.4c0.1-0.2,0.1-0.3,0.1-0.5c0-0.2,0-0.4-0.1-0.5
		c-0.1-0.1-0.2-0.3-0.3-0.3c-0.1-0.1-0.3-0.1-0.5-0.2C43.4,119.4,43.2,119.4,43,119.4 M44.9,125.2c0-0.2,0-0.5-0.1-0.7
		c-0.1-0.2-0.2-0.4-0.3-0.6c-0.1-0.2-0.3-0.3-0.6-0.4c-0.2-0.1-0.5-0.2-0.8-0.2v3.3c0.2,0,0.4,0,0.6-0.1c0.2-0.1,0.4-0.2,0.6-0.3
		c0.2-0.1,0.3-0.3,0.4-0.5C44.8,125.6,44.9,125.4,44.9,125.2"/>
	<polygon class="st0" points="49.8,123 49.8,128 48.5,128 48.5,123 46.8,118 48.1,118 49.1,121 50.2,118 51.5,118 49.8,123 	"/>
	<polygon class="st0" points="54.1,128 54.1,119.4 52.2,119.4 52.2,118.1 57.2,118.1 57.2,119.4 55.4,119.4 55.4,128 	"/>
	<polygon class="st0" points="61.8,118.1 61.8,119.3 59.3,119.3 59.3,122.8 61.4,122.8 61.4,124.1 59.3,124.1 59.3,126.7 
		61.8,126.7 61.8,128 57.9,128 57.9,118.1 	"/>
	<path class="st0" d="M62.7,128v-9.9c0.3,0,0.5,0,0.8,0s0.5,0,0.8,0c0.3,0,0.5,0,0.7,0.1c0.2,0,0.4,0.1,0.6,0.2
		c0.3,0.1,0.6,0.3,0.8,0.5c0.2,0.2,0.4,0.4,0.5,0.6c0.1,0.2,0.2,0.5,0.3,0.7c0,0.3,0.1,0.5,0.1,0.8c0,0.3,0,0.6-0.1,1
		c-0.1,0.3-0.2,0.6-0.4,0.9c-0.2,0.3-0.4,0.5-0.7,0.7s-0.6,0.4-1,0.5l2.1,4.1h-1.4l-1.9-3.8v3.8H62.7z M65.9,120.9
		c0-0.2-0.1-0.5-0.1-0.7c-0.1-0.2-0.2-0.4-0.4-0.5c-0.2-0.1-0.4-0.2-0.6-0.3c-0.2-0.1-0.6-0.1-0.9-0.1v3.4c0.4,0,0.7,0,0.9-0.1
		c0.3-0.1,0.5-0.2,0.6-0.4c0.2-0.2,0.3-0.4,0.4-0.6C65.9,121.5,65.9,121.2,65.9,120.9"/>
	<polygon class="st0" points="68,128 68,126.7 69.3,126.7 69.3,119.4 68,119.4 68,118.1 71.9,118.1 71.9,119.4 70.6,119.4 
		70.6,126.7 71.9,126.7 71.9,128 	"/>
	<path class="st0" d="M78.4,128h-1.3l-0.7-3h-1.8l-0.7,3h-1.3l2.2-10h1.3L78.4,128z M74.9,123.7h1.2l-0.6-2.8L74.9,123.7z"/>
	<polygon class="st0" points="80.5,120.6 80.5,128 79.3,128 79.3,118 80.6,118 83.9,125.1 83.9,118 85.2,118 85.2,128 83.9,128 	"/>
	<path class="st0" d="M92,119.6c-0.1-0.1-0.2-0.2-0.4-0.2c-0.2,0-0.3-0.1-0.4-0.1c-0.3,0-0.6,0.2-0.8,0.4c-0.2,0.2-0.4,0.5-0.6,0.8
		c-0.2,0.3-0.3,0.8-0.4,1.2c-0.1,0.5-0.1,1-0.1,1.6c0,0.4,0,0.8,0.1,1.1c0.1,0.4,0.2,0.7,0.3,1c0.1,0.3,0.3,0.6,0.5,0.8
		c0.2,0.2,0.4,0.3,0.7,0.3c0.1,0,0.3,0,0.5-0.1c0.2-0.1,0.4-0.2,0.5-0.3l0.6,1.1c-0.3,0.3-0.6,0.4-0.8,0.5c-0.3,0.1-0.6,0.1-0.8,0.1
		c-0.4,0-0.8-0.1-1.2-0.4c-0.3-0.3-0.6-0.6-0.9-1.1c-0.2-0.4-0.4-0.9-0.6-1.5c-0.1-0.6-0.2-1.1-0.2-1.7c0-0.7,0.1-1.3,0.2-2
		c0.1-0.6,0.3-1.2,0.6-1.7c0.3-0.5,0.6-0.9,1.1-1.2c0.4-0.3,0.9-0.5,1.5-0.4c0.2,0,0.4,0,0.6,0.1c0.2,0,0.4,0.1,0.6,0.2L92,119.6z"
		/>
	<polygon class="st0" points="98.4,128 97.1,128 97.1,123.8 94.7,123.8 94.7,128 93.4,128 93.4,118 94.7,118 94.7,122.5 97.1,122.5 
		97.1,118 98.4,118 	"/>
	<path class="st0" d="M101.6,126.8c0.2,0,0.4-0.1,0.6-0.3c0.1-0.2,0.3-0.4,0.3-0.7c0.1-0.3,0.1-0.6,0.2-0.9c0-0.3,0.1-0.6,0.1-0.9
		c0-0.9,0-1.9,0-2.9c0-1,0-2,0-3.1h1.2c0,0.5,0,1.1,0,1.6c0,0.5,0,1.1,0,1.6c0,0.5,0,1,0,1.5c0,0.5,0,0.9,0,1.3
		c0,0.5-0.1,0.9-0.1,1.4c-0.1,0.5-0.2,0.9-0.3,1.3c-0.2,0.4-0.4,0.7-0.7,0.9c-0.3,0.2-0.7,0.4-1.3,0.4c-0.5,0-0.9-0.1-1.2-0.4
		c-0.3-0.2-0.5-0.5-0.7-0.9c-0.2-0.4-0.3-0.8-0.3-1.2c-0.1-0.5-0.1-0.9-0.1-1.4c0-0.9-0.1-1.9,0-2.9c0-1,0-2.1,0-3.2h1.2
		c0,1,0,2-0.1,3c0,1,0,2,0.1,3c0,0.3,0,0.6,0.1,0.9c0,0.3,0.1,0.6,0.2,0.9c0.1,0.3,0.2,0.5,0.3,0.7
		C101.2,126.7,101.4,126.8,101.6,126.8"/>
	<path class="st0" d="M104.8,128v-9.9c0.3,0,0.5,0,0.8,0c0.3,0,0.5,0,0.8,0c0.3,0,0.5,0,0.7,0.1s0.4,0.1,0.6,0.2
		c0.3,0.1,0.6,0.3,0.8,0.5c0.2,0.2,0.4,0.4,0.5,0.6c0.1,0.2,0.2,0.5,0.3,0.7c0,0.3,0.1,0.5,0.1,0.8c0,0.3,0,0.6-0.1,1
		c-0.1,0.3-0.2,0.6-0.4,0.9c-0.2,0.3-0.4,0.5-0.7,0.7c-0.3,0.2-0.6,0.4-1,0.5l2.1,4.1H108l-1.9-3.8v3.8H104.8z M108,120.9
		c0-0.2-0.1-0.5-0.1-0.7c-0.1-0.2-0.2-0.4-0.4-0.5c-0.2-0.1-0.4-0.2-0.6-0.3c-0.2-0.1-0.6-0.1-0.9-0.1v3.4c0.4,0,0.7,0,0.9-0.1
		c0.3-0.1,0.5-0.2,0.6-0.4c0.2-0.2,0.3-0.4,0.4-0.6C108,121.5,108,121.2,108,120.9"/>
	<path class="st0" d="M114.2,119.6c-0.1-0.1-0.2-0.2-0.4-0.2c-0.2,0-0.3-0.1-0.4-0.1c-0.3,0-0.6,0.2-0.8,0.4s-0.4,0.5-0.6,0.8
		c-0.2,0.3-0.3,0.8-0.4,1.2c-0.1,0.5-0.1,1-0.1,1.6c0,0.4,0,0.8,0.1,1.1c0.1,0.4,0.2,0.7,0.3,1c0.1,0.3,0.3,0.6,0.5,0.8
		c0.2,0.2,0.4,0.3,0.7,0.3c0.1,0,0.3,0,0.5-0.1c0.2-0.1,0.4-0.2,0.5-0.3l0.6,1.1c-0.3,0.3-0.6,0.4-0.8,0.5c-0.3,0.1-0.6,0.1-0.8,0.1
		c-0.4,0-0.8-0.1-1.2-0.4c-0.3-0.3-0.6-0.6-0.9-1.1c-0.2-0.4-0.4-0.9-0.6-1.5c-0.1-0.6-0.2-1.1-0.2-1.7c0-0.7,0.1-1.3,0.2-2
		c0.1-0.6,0.3-1.2,0.6-1.7s0.6-0.9,1.1-1.2c0.4-0.3,0.9-0.5,1.5-0.4c0.2,0,0.4,0,0.6,0.1c0.2,0,0.4,0.1,0.6,0.2L114.2,119.6z"/>
	<polygon class="st0" points="120.6,128 119.3,128 119.3,123.8 116.9,123.8 116.9,128 115.6,128 115.6,118 116.9,118 116.9,122.5 
		119.3,122.5 119.3,118 120.6,118 	"/>
	<g class="st2">
		<rect x="30" y="146.7" style="fill:none;" width="108.8" height="22.3"/>
		<text transform="matrix(1 0 0 1 30.0232 154.8707)" style="font-family:'BaskOldFace'; font-size:12px;">BANNOCKBURN</text>
	</g>
	<g class="st2">
	</g>
</g>
</svg>
